<svg width="112" class="css-1j8o68f" viewBox="0 0 282 180" style="padding:0.95rem"><g fill="#39e991"><g xmlns="http://www.w3.org/2000/svg"><path d="M54 53H41v-2h13c4.411 0 8-3.589 8-8a7.96 7.96 0 00-5.635-7.644l-.558-.172-.124-.57C54.343 28.463 48.798 24 42.5 24a13.484 13.484 0 00-10.245 4.725l-.353.412-.538-.071A6.32 6.32 0 0030.5 29a6.508 6.508 0 00-6.375 5.236l-.145.732-.743.07A7.96 7.96 0 0016 43h-2a9.947 9.947 0 018.334-9.859A8.517 8.517 0 0130.5 27c.19 0 .384.008.591.024A15.478 15.478 0 0142.5 22c7.04 0 13.261 4.858 15.005 11.632A9.945 9.945 0 0164 43c0 5.514-4.486 10-10 10z" transform="matrix(2.73585 0 0 2.73585 37.906 -60.189)"></path><path d="M27.555 35.831A7.926 7.926 0 0024 35v-2c1.561 0 3.056.35 4.445 1.04l-.89 1.791zM56.955 35.563a8.085 8.085 0 00-4.962-.31l-.5-1.937a10.081 10.081 0 016.202.388l-.74 1.859zM34.67 30.734C33.466 29.616 32 29 30 29v-2c3 0 4.33.806 5.906 2.269l-1.236 1.465z" transform="matrix(2.73585 0 0 2.73585 37.906 -60.189)"></path></g><g xmlns="http://www.w3.org/2000/svg"><path d="M11 47H15V49H11z" transform="matrix(2.73585 0 0 2.73585 37.906 -60.189)"></path><path d="M17 47H23V49H17z" transform="matrix(2.73585 0 0 2.73585 37.906 -60.189)"></path><path d="M37.5 49H24v-2h13.5c1.379 0 2.5-1.122 2.5-2.5S38.879 42 37.5 42H37v-2h.5c2.481 0 4.5 2.019 4.5 4.5S39.981 49 37.5 49z" transform="matrix(2.73585 0 0 2.73585 37.906 -60.189)"></path></g><g xmlns="http://www.w3.org/2000/svg"><path d="M14 51H16V53H14z" transform="matrix(2.73585 0 0 2.73585 37.906 -60.189)"></path><path d="M18 51H22V53H18z" transform="matrix(2.73585 0 0 2.73585 37.906 -60.189)"></path><path d="M30.5 60H30v-2h.5c1.379 0 2.5-1.122 2.5-2.5S31.879 53 30.5 53H23v-2h7.5c2.481 0 4.5 2.019 4.5 4.5S32.981 60 30.5 60z" transform="matrix(2.73585 0 0 2.73585 37.906 -60.189)"></path></g></g><path fill="#262833" d="M14.7 20h-3.14v-5.68H4.7V20H1.56V5.38H4.7v6.2h6.86v-6.2h3.14V20zm5.57-.51q-1.37-.77-2.17-2.09t-.8-2.88q0-1.54.8-2.86t2.17-2.09 2.99-.77 3 .77 2.19 2.09.81 2.86q0 1.56-.81 2.88t-2.19 2.09-3 .77-2.99-.77zm1.47-7.66q-.7.41-1.1 1.12t-.4 1.57q0 .9.39 1.61t1.08 1.12 1.55.41q.84 0 1.53-.41t1.09-1.13.4-1.6q0-.86-.4-1.57t-1.09-1.12-1.53-.41q-.82 0-1.52.41zm9.34 6.71l1.56-2.08q.72.5 1.68.84t1.88.34q.68 0 1.13-.28t.45-.7-.51-.59-.99-.24-.62-.09q-1.2-.2-2.07-.48t-1.58-1-.71-1.98q0-2.08 1.51-2.78t3.03-.7q1.3 0 2.4.38t2.18 1.2l-1.56 2.04q-.78-.46-1.54-.74t-1.58-.28q-.5 0-.97.22t-.47.6q0 .48.65.68t1.43.3q1.4.24 2.24.5t1.49.97.65 2.01q0 1.72-1.18 2.65t-3.34.93q-3 0-5.16-1.72zm15.76-2.46q0 .7.24 1.17t1.12.47q.4 0 .76-.04v2.52q-.72.08-1.34.08-1.28 0-2.07-.21t-1.23-.81-.44-1.72v-6.1h-1.34V8.82h1.34V5.88h2.96v2.94h2.2v2.62h-2.2v4.64zm7.52-11.2v8.8l3.74-4.62h3.66l-4.42 5.12 4.6 5.82h-3.62l-2.88-3.6-1.08 1.24V20h-3V4.88h3zM71.74 18.9q-.38.52-1.31.93t-2.03.41q-1.7 0-2.95-.76t-1.91-2.07-.66-2.91.66-2.91 1.91-2.07 2.95-.76q1.14 0 2.01.39t1.33.99V9h2.96v11h-2.96v-1.1zm-.7-6.65q-.82-.87-2.2-.87-1.4 0-2.21.87t-.81 2.25q0 1.34.83 2.22t2.19.88q1.4 0 2.21-.83t.81-2.27q0-1.38-.82-2.25zm23.03-2.21q1.13 1.24 1.13 3.46V20h-3.02v-6.5q0-1.18-.59-1.7t-1.55-.52q-.8 0-1.44.6t-.66 2V20h-3.02v-6.5q0-1.18-.59-1.7t-1.53-.52q-.86 0-1.49.64t-.63 2.26L80.66 20h-2.98V9h2.98v1q.58-.52 1.4-.86t1.5-.34q2.32 0 3.54 1.5.62-.7 1.54-1.1t2-.4q2.3 0 3.43 1.24z" transform="matrix(2.99018 0 0 2.99018 -4.665 109.408)"></path></svg>